<svg width="41" height="46" viewBox="0 0 41 46" fill="none" xmlns="http://www.w3.org/2000/svg">
<path d="M40.9058 20.7934C40.8791 16.7694 39.6598 12.8278 37.402 9.46711C35.1442 6.10642 31.9493 3.47758 28.2214 1.91302C24.4935 0.348462 20.3999 -0.0815492 16.4584 0.677367C12.5168 1.43628 8.90435 3.35004 6.07776 6.17663C3.25117 9.00323 1.33741 12.6157 0.57849 16.5572C-0.180426 20.4988 0.249584 24.5923 1.81414 28.3203C3.3787 32.0482 6.00754 35.2431 9.36823 37.5009C12.7289 39.7587 16.6705 40.978 20.6946 41.0047L20.631 31.4082C18.505 31.3941 16.4225 30.7499 14.6469 29.557C12.8713 28.3642 11.4824 26.6762 10.6558 24.7066C9.82919 22.737 9.602 20.5742 10.003 18.4917C10.4039 16.4093 11.415 14.5007 12.9084 13.0073C14.4018 11.5139 16.3104 10.5028 18.3929 10.1018C20.4753 9.70088 22.6381 9.92807 24.6077 10.7547C26.5773 11.5813 28.2653 12.9702 29.4582 14.7458C30.651 16.5213 31.2952 18.6038 31.3093 20.7299L40.9058 20.7934Z" fill="#155ED7"/>
<path d="M40.9058 20.7934C40.8701 15.3973 38.6922 10.2081 34.8513 6.36719C31.0104 2.52631 25.8212 0.348449 20.4251 0.312712C15.029 0.276975 9.8681 2.38629 6.07776 6.17663C2.28741 9.96697 0.1781 15.1279 0.213835 20.5239L9.8103 20.5875C9.79142 17.7366 10.9058 15.0099 12.9084 13.0073C14.911 11.0047 17.6377 9.8903 20.4886 9.90918C23.3396 9.92806 26.0813 11.0787 28.1105 13.108C30.1398 15.1373 31.2904 17.8789 31.3093 20.7299L40.9058 20.7934Z" fill="#7782FF"/>
<path d="M40.9058 20.7934C40.8881 18.1216 40.3443 15.4724 39.3055 12.9971C38.2667 10.5219 36.7531 8.269 34.8513 6.36719C32.9495 4.46538 30.6967 2.95185 28.2214 1.91302C25.7461 0.874193 23.0969 0.330407 20.4251 0.312712L20.4886 9.90918C21.9003 9.91853 23.2999 10.2058 24.6077 10.7547C25.9155 11.3035 27.1057 12.1032 28.1105 13.108C29.1153 14.1128 29.915 15.303 30.4638 16.6108C31.0127 17.9186 31.3 19.3182 31.3093 20.7299L40.9058 20.7934Z" fill="#27CAEA"/>
<path d="M27.0953 45.688L27.0953 28.0336H33.8207V45.688H27.0953Z" fill="#FF418C"/>
<path d="M20.3698 22.9895H40.9665V29.715H20.3698V22.9895Z" fill="#FEBA66"/>
</svg>
